<svg xmlns="http://www.w3.org/2000/svg" width="640" height="460" viewBox="0 0 640 460">
<rect width="640" height="460" fill="#ffffff"/>
<text x="320.0" y="28" text-anchor="middle" font-size="24" font-family="Arial" font-weight="700">ROC Curve</text>
<rect x="70" y="45" width="500" height="340" fill="#fbfdff" stroke="#243447"/>
<line x1="70" y1="385" x2="570" y2="45" stroke="#8a94a6" stroke-dasharray="6 6"/>
<polyline points="70.0,385.0 70.0,365.0 73.2,365.0 73.2,345.0 73.2,325.0 73.2,305.0 76.3,305.0 79.5,305.0 82.7,305.0 85.8,305.0 89.0,305.0 92.2,305.0 92.2,285.0 95.3,285.0 95.3,265.0 98.5,265.0 101.6,265.0 104.8,265.0 104.8,245.0 108.0,245.0 111.1,245.0 114.3,245.0 117.5,245.0 120.6,245.0 123.8,245.0 127.0,245.0 130.1,245.0 133.3,245.0 136.5,245.0 136.5,225.0 139.6,225.0 139.6,205.0 142.8,205.0 145.9,205.0 149.1,205.0 152.3,205.0 152.3,185.0 155.4,185.0 158.6,185.0 161.8,185.0 164.9,185.0 168.1,185.0 171.3,185.0 174.4,185.0 177.6,185.0 180.8,185.0 183.9,185.0 187.1,185.0 187.1,165.0 190.3,165.0 193.4,165.0 196.6,165.0 199.7,165.0 202.9,165.0 202.9,145.0 206.1,145.0 209.2,145.0 212.4,145.0 215.6,145.0 218.7,145.0 221.9,145.0 225.1,145.0 228.2,145.0 231.4,145.0 234.6,145.0 234.6,125.0 237.7,125.0 240.9,125.0 244.1,125.0 244.1,105.0 247.2,105.0 250.4,105.0 253.5,105.0 256.7,105.0 259.9,105.0 263.0,105.0 266.2,105.0 269.4,105.0 272.5,105.0 275.7,105.0 278.9,105.0 282.0,105.0 285.2,105.0 285.2,85.0 288.4,85.0 291.5,85.0 294.7,85.0 297.8,85.0 301.0,85.0 301.0,65.0 304.2,65.0 307.3,65.0 310.5,65.0 313.7,65.0 316.8,65.0 320.0,65.0 323.2,65.0 326.3,65.0 329.5,65.0 332.7,65.0 335.8,65.0 339.0,65.0 342.2,65.0 342.2,45.0 345.3,45.0 348.5,45.0 351.6,45.0 354.8,45.0 358.0,45.0 361.1,45.0 364.3,45.0 367.5,45.0 370.6,45.0 373.8,45.0 377.0,45.0 380.1,45.0 383.3,45.0 386.5,45.0 389.6,45.0 392.8,45.0 395.9,45.0 399.1,45.0 402.3,45.0 405.4,45.0 408.6,45.0 411.8,45.0 414.9,45.0 418.1,45.0 421.3,45.0 424.4,45.0 427.6,45.0 430.8,45.0 433.9,45.0 437.1,45.0 440.3,45.0 443.4,45.0 446.6,45.0 449.7,45.0 452.9,45.0 456.1,45.0 459.2,45.0 462.4,45.0 465.6,45.0 468.7,45.0 471.9,45.0 475.1,45.0 478.2,45.0 481.4,45.0 484.6,45.0 487.7,45.0 490.9,45.0 494.1,45.0 497.2,45.0 500.4,45.0 503.5,45.0 506.7,45.0 509.9,45.0 513.0,45.0 516.2,45.0 519.4,45.0 522.5,45.0 525.7,45.0 528.9,45.0 532.0,45.0 535.2,45.0 538.4,45.0 541.5,45.0 544.7,45.0 547.8,45.0 551.0,45.0 554.2,45.0 557.3,45.0 560.5,45.0 563.7,45.0 566.8,45.0 570.0,45.0" fill="none" stroke="#2f80ed" stroke-width="3"/><polyline points="70.0,385.0 73.2,385.0 92.2,325.0 101.6,325.0 133.3,185.0 142.8,185.0 152.3,185.0 161.8,185.0 183.9,145.0 190.3,145.0 282.0,125.0 297.8,125.0 503.5,85.0 547.8,85.0 570.0,45.0" fill="none" stroke="#f2994a" stroke-width="3"/><polyline points="70.0,385.0 73.2,385.0 76.3,385.0 76.3,365.0 76.3,345.0 76.3,325.0 79.5,325.0 79.5,305.0 82.7,305.0 85.8,305.0 85.8,285.0 89.0,285.0 92.2,285.0 95.3,285.0 98.5,285.0 101.6,285.0 101.6,265.0 104.8,265.0 104.8,245.0 108.0,245.0 108.0,225.0 111.1,225.0 114.3,225.0 117.5,225.0 120.6,225.0 123.8,225.0 123.8,205.0 127.0,205.0 130.1,205.0 133.3,205.0 136.5,205.0 139.6,205.0 142.8,205.0 145.9,205.0 149.1,205.0 152.3,205.0 155.4,205.0 155.4,185.0 158.6,185.0 161.8,185.0 164.9,185.0 168.1,185.0 171.3,185.0 174.4,185.0 177.6,185.0 180.8,185.0 180.8,165.0 183.9,165.0 183.9,145.0 187.1,145.0 190.3,145.0 193.4,145.0 193.4,125.0 196.6,125.0 199.7,125.0 202.9,125.0 206.1,125.0 209.2,125.0 212.4,125.0 215.6,125.0 218.7,125.0 221.9,125.0 225.1,125.0 228.2,125.0 231.4,125.0 234.6,125.0 237.7,125.0 240.9,125.0 244.1,125.0 247.2,125.0 250.4,125.0 253.5,125.0 256.7,125.0 256.7,105.0 259.9,105.0 263.0,105.0 266.2,105.0 269.4,105.0 272.5,105.0 275.7,105.0 278.9,105.0 282.0,105.0 285.2,105.0 288.4,105.0 291.5,105.0 294.7,105.0 297.8,105.0 301.0,105.0 304.2,105.0 307.3,105.0 310.5,105.0 313.7,105.0 316.8,105.0 320.0,105.0 323.2,105.0 326.3,105.0 329.5,105.0 332.7,105.0 335.8,105.0 339.0,105.0 342.2,105.0 345.3,105.0 348.5,105.0 351.6,105.0 354.8,105.0 358.0,105.0 358.0,85.0 361.1,85.0 361.1,65.0 364.3,65.0 367.5,65.0 370.6,65.0 373.8,65.0 377.0,65.0 380.1,65.0 383.3,65.0 386.5,65.0 389.6,65.0 392.8,65.0 395.9,65.0 399.1,65.0 402.3,65.0 405.4,65.0 408.6,65.0 411.8,65.0 414.9,65.0 418.1,65.0 421.3,65.0 424.4,65.0 427.6,65.0 430.8,65.0 433.9,65.0 437.1,65.0 440.3,65.0 443.4,65.0 446.6,65.0 449.7,65.0 449.7,45.0 452.9,45.0 456.1,45.0 459.2,45.0 462.4,45.0 465.6,45.0 468.7,45.0 471.9,45.0 475.1,45.0 478.2,45.0 481.4,45.0 484.6,45.0 487.7,45.0 490.9,45.0 494.1,45.0 497.2,45.0 500.4,45.0 503.5,45.0 506.7,45.0 509.9,45.0 513.0,45.0 516.2,45.0 519.4,45.0 522.5,45.0 525.7,45.0 528.9,45.0 532.0,45.0 535.2,45.0 538.4,45.0 541.5,45.0 544.7,45.0 547.8,45.0 551.0,45.0 554.2,45.0 557.3,45.0 560.5,45.0 563.7,45.0 566.8,45.0 570.0,45.0" fill="none" stroke="#219653" stroke-width="3"/>
<g font-family="Arial" fill="#14213d">
<text x="320.0" y="430" text-anchor="middle" font-size="15">False Positive Rate</text>
<text x="20" y="215.0" transform="rotate(-90 20 215.0)" text-anchor="middle" font-size="15">True Positive Rate</text>
<text x="62" y="390" text-anchor="end" font-size="12">0.0</text>
<text x="62" y="50" text-anchor="end" font-size="12">1.0</text>
<text x="70" y="407" text-anchor="middle" font-size="12">0.0</text>
<text x="570" y="407" text-anchor="middle" font-size="12">1.0</text>
<line x1="400" y1="75" x2="432" y2="75" stroke="#2f80ed" stroke-width="4"/><text x="440" y="80" font-size="14">Logistic Regression AUC=0.810</text><line x1="400" y1="100" x2="432" y2="100" stroke="#f2994a" stroke-width="4"/><text x="440" y="105" font-size="14">Decision Tree AUC=0.720</text><line x1="400" y1="125" x2="432" y2="125" stroke="#219653" stroke-width="4"/><text x="440" y="130" font-size="14">Random Forest AUC=0.790</text>
</g>
</svg>